<?xml version="1.0" standalone="no"?>
<!DOCTYPE svg PUBLIC "-//W3C//DTD SVG 1.1//EN" "http://www.w3.org/Graphics/SVG/1.1/DTD/svg11.dtd">
<svg xmlns="http://www.w3.org/2000/svg" xmlns:xlink="http://www.w3.org/1999/xlink" version="1.1" id="Camada_1" x="0px" y="0px" viewBox="0 0 121.89 85.04" enable-background="new 0 0 121.89 85.04" xml:space="preserve" width="121.88999938964844" height="85.04000091552734">
<g>
	<g>
		<path fill="#FFFFFF" d="M9.78,77.56c0-1.51,1.24-2.72,2.77-2.72c1,0,1.92,0.52,2.41,1.36c0.15,0.26,0.05,0.58-0.2,0.74    c-0.27,0.14-0.6,0.06-0.75-0.19c-0.3-0.51-0.85-0.82-1.46-0.82c-0.92,0-1.68,0.74-1.68,1.65c0,0.9,0.76,1.65,1.68,1.65    c0.58,0,1.11-0.28,1.42-0.76c0.17-0.25,0.51-0.31,0.76-0.16c0.26,0.16,0.32,0.5,0.16,0.75c-0.51,0.78-1.38,1.25-2.34,1.25    C11.02,80.28,9.78,79.06,9.78,77.56z"/>
		<path fill="#FFFFFF" d="M19.96,77.55c0-1.51,1.25-2.72,2.78-2.72c1.54,0,2.78,1.21,2.78,2.72c0,1.5-1.24,2.72-2.78,2.72    C21.21,80.27,19.96,79.05,19.96,77.55z M21.05,77.55c0,0.9,0.75,1.65,1.68,1.65c0.93,0,1.68-0.75,1.68-1.65    c0-0.91-0.75-1.65-1.68-1.65C21.81,75.9,21.05,76.64,21.05,77.55z"/>
		<path fill="#FFFFFF" d="M38.35,77.06c0.01,0.02,0.01,0.03,0.01,0.05v2.63c0,0.3-0.26,0.54-0.55,0.54c-0.3,0-0.54-0.24-0.54-0.54    v-2.63c0-0.02,0-0.03,0-0.05c0-0.01,0-0.02,0-0.04c0-0.61-0.51-1.1-1.13-1.1c-0.62,0-1.13,0.49-1.13,1.1v2.73    c0,0.3-0.24,0.54-0.54,0.54c-0.3,0-0.55-0.24-0.55-0.54v-2.73c0-0.61-0.5-1.1-1.12-1.1c-0.62,0-1.13,0.49-1.13,1.1v2.73    c0,0.3-0.24,0.54-0.54,0.54c-0.31,0-0.55-0.24-0.55-0.54v-2.73c0-1.19,1-2.17,2.22-2.17c0.66,0,1.26,0.28,1.67,0.75    c0.41-0.47,1.01-0.75,1.67-0.75c1.23,0,2.23,0.98,2.23,2.17C38.36,77.04,38.36,77.05,38.35,77.06z"/>
		<path fill="#FFFFFF" d="M47.95,75.37v2.72v0.01c-0.01,1.2-1.01,2.18-2.25,2.18c-1.23,0-2.23-0.98-2.23-2.18v-0.01v-2.72    c0-0.29,0.24-0.53,0.54-0.53c0.31,0,0.55,0.24,0.55,0.53v2.71c0,0.62,0.51,1.13,1.14,1.13c0.64,0,1.15-0.51,1.15-1.13v-2.71    c0-0.29,0.24-0.53,0.55-0.53C47.7,74.84,47.95,75.08,47.95,75.37z"/>
		<path fill="#FFFFFF" d="M58.56,77.55v2.18c0,0.3-0.24,0.54-0.55,0.54c-0.3,0-0.54-0.24-0.54-0.54v-2.18    c0-0.91-0.75-1.65-1.68-1.65c-0.93,0-1.68,0.74-1.68,1.65v2.18c0,0.3-0.24,0.54-0.55,0.54c-0.3,0-0.54-0.24-0.54-0.54v-2.18    c0-1.51,1.25-2.72,2.78-2.72C57.31,74.83,58.56,76.04,58.56,77.55z"/>
		<path fill="#FFFFFF" d="M63.78,73.6c-0.1-0.1-0.17-0.24-0.17-0.38c0-0.14,0.07-0.28,0.17-0.38c0.1-0.1,0.24-0.16,0.39-0.16    c0.14,0,0.29,0.06,0.39,0.16c0.1,0.1,0.15,0.24,0.15,0.38c0,0.14-0.06,0.28-0.15,0.38c-0.1,0.1-0.24,0.15-0.39,0.15    C64.02,73.75,63.88,73.7,63.78,73.6z M63.61,79.74v-4.37c0-0.29,0.24-0.53,0.55-0.53c0.3,0,0.54,0.24,0.54,0.53v4.37    c0,0.3-0.24,0.54-0.54,0.54C63.86,80.28,63.61,80.04,63.61,79.74z"/>
		<path fill="#FFFFFF" d="M69.77,77.56c0-1.51,1.24-2.72,2.77-2.72c1,0,1.92,0.52,2.41,1.36c0.15,0.26,0.05,0.58-0.2,0.74    c-0.27,0.14-0.6,0.06-0.75-0.19c-0.3-0.51-0.85-0.82-1.46-0.82c-0.92,0-1.68,0.74-1.68,1.65c0,0.9,0.76,1.65,1.68,1.65    c0.58,0,1.11-0.28,1.42-0.76c0.17-0.25,0.51-0.31,0.76-0.16c0.26,0.16,0.32,0.5,0.16,0.75c-0.51,0.78-1.38,1.25-2.34,1.25    C71.01,80.28,69.77,79.06,69.77,77.56z"/>
		<path fill="#FFFFFF" d="M85.48,77.59v2.12c0,0.31-0.23,0.54-0.55,0.54c-0.22,0-0.53-0.23-0.53-0.54    c-0.48,0.39-1.01,0.54-1.64,0.54c-1.56,0-2.8-1.14-2.8-2.67c0-1.53,1.24-2.74,2.8-2.74C84.32,74.85,85.48,76.06,85.48,77.59z     M84.39,77.59c0-0.91-0.71-1.68-1.64-1.68c-0.93,0-1.72,0.77-1.72,1.68s0.79,1.6,1.72,1.6C83.69,79.2,84.39,78.5,84.39,77.59z"/>
		<path fill="#FFFFFF" d="M95.57,79.02c-0.46,0.74-1.27,1.2-2.15,1.25l-0.01,0.11c0.44,0.01,0.81,0.38,0.81,0.85    c0,0.47-0.38,0.81-0.85,0.81c-0.17,0-0.32-0.03-0.49-0.15c-0.2-0.13-0.27-0.22-0.27-0.34c0-0.15,0.12-0.28,0.29-0.28    c0.08,0,0.14,0.03,0.2,0.08c0.15,0.14,0.21,0.16,0.27,0.16c0.17,0,0.3-0.12,0.3-0.28c0-0.16-0.13-0.29-0.3-0.29    c-0.05,0-0.1,0.01-0.14,0.04c-0.06,0.03-0.11,0.05-0.18,0.05c-0.17,0-0.3-0.13-0.3-0.29l0.11-0.49c-1.35-0.18-2.39-1.32-2.39-2.7    c0-1.51,1.24-2.72,2.77-2.72c1,0,1.92,0.52,2.41,1.35c0.15,0.26,0.05,0.58-0.2,0.74c-0.26,0.14-0.6,0.06-0.75-0.19    c-0.3-0.51-0.85-0.82-1.46-0.82c-0.92,0-1.68,0.74-1.68,1.65c0,0.9,0.76,1.65,1.68,1.65c0.58,0,1.11-0.28,1.42-0.76    c0.17-0.25,0.51-0.31,0.77-0.16C95.67,78.44,95.74,78.77,95.57,79.02z"/>
		<path fill="#FFFFFF" d="M106.32,77.59v2.12c0,0.31-0.23,0.54-0.55,0.54c-0.22,0-0.53-0.23-0.53-0.54    c-0.48,0.39-1.01,0.54-1.64,0.54c-1.56,0-2.8-1.14-2.8-2.67c0-1.53,1.24-2.74,2.8-2.74C105.16,74.85,106.32,76.06,106.32,77.59z     M105.32,73.18c0,0.29-0.24,0.53-0.54,0.53c-0.11,0-0.21-0.03-0.29-0.08c-0.03-0.02-0.07-0.04-0.09-0.06    c-0.01-0.01-0.02-0.02-0.03-0.03c0,0,0-0.01-0.01-0.01c-0.04-0.04-0.09-0.09-0.12-0.13c-0.12-0.12-0.13-0.12-0.17-0.12    c-0.03,0-0.05,0-0.15,0.12c-0.17,0.17-0.44,0.47-0.96,0.47c-0.51,0-0.79-0.29-0.95-0.47c-0.02-0.02-0.03-0.03-0.05-0.05    c-0.01-0.01-0.01-0.01-0.02-0.02c-0.09-0.1-0.14-0.22-0.14-0.36c0-0.29,0.24-0.53,0.54-0.53c0.14,0,0.28,0.05,0.38,0.15    c0.01,0,0.01,0,0.01,0.01c0.03,0.03,0.07,0.05,0.09,0.09c0.12,0.12,0.12,0.12,0.15,0.12s0.04,0,0.17-0.12    c0.17-0.17,0.44-0.47,0.95-0.47c0.52,0,0.8,0.29,0.96,0.47l0.13,0.13C105.26,72.91,105.32,73.04,105.32,73.18z M105.23,77.59    c0-0.91-0.71-1.68-1.64-1.68s-1.72,0.77-1.72,1.68s0.79,1.6,1.72,1.6S105.23,78.5,105.23,77.59z"/>
		<path fill="#FFFFFF" d="M111.32,77.55c0-1.51,1.25-2.72,2.78-2.72c1.54,0,2.78,1.21,2.78,2.72c0,1.5-1.24,2.72-2.78,2.72    C112.57,80.27,111.32,79.05,111.32,77.55z M112.41,77.55c0,0.9,0.75,1.65,1.68,1.65s1.68-0.75,1.68-1.65    c0-0.91-0.75-1.65-1.68-1.65S112.41,76.64,112.41,77.55z"/>
	</g>
	<g>
		<path fill="none" d="M78.21,34.77c0-0.06,0-0.11,0-0.17C78.21,34.66,78.21,34.72,78.21,34.77z"/>
		<path fill="none" d="M78.21,33.91c0,0.11,0,0.22,0,0.33c0-0.14,0-0.28,0.01-0.41C78.22,33.86,78.21,33.88,78.21,33.91z"/>
		<path fill="none" d="M72.64,47.69c-0.05-0.07-0.1-0.15-0.15-0.22c-0.03-0.04-0.05-0.08-0.08-0.12c-2.34-3.56-3.69-7.82-3.69-12.51    c0-4.85,1.44-9.33,3.92-13.07c2.71,2.72,4.58,6.25,5.18,10.19c0,0,0,0,0,0c-0.61-3.94-2.48-7.47-5.19-10.19    c0.24-0.36,0.5-0.71,0.76-1.06c-3.33-2.83-7.67-4.55-12.43-4.55c-4.73,0-9.05,1.69-12.37,4.49c0.34,0.43,0.66,0.9,0.98,1.4    c0.01,0.01,0.02,0.02,0.02,0.04c0,0,0,0,0,0c2.12,3.37,3.68,8.04,3.68,12.4c0,5.31-1.8,10.22-4.84,14.18    c3.34,2.89,7.72,4.67,12.53,4.67c4.75,0,9.09-1.74,12.41-4.58C73.14,48.41,72.89,48.05,72.64,47.69    C72.65,47.69,72.65,47.69,72.64,47.69z"/>
		<path fill="none" d="M92.81,20.28v0.4c-1.27,0.02-2.51,0.19-3.68,0.51c0.04,0.07,0.08,0.14,0.11,0.22    c1.98,4.03,3.09,8.55,3.09,13.34c0,4.65-1.06,9.05-2.96,13.01c-0.08,0.17-0.17,0.35-0.26,0.52c1.27,0.33,2.6,0.51,3.96,0.51    c8.08,0,14.24-6.03,14.24-13.94c0-6.65-4.34-12.43-10.52-14.11C95.36,20.4,94.03,20.27,92.81,20.28z"/>
		<path fill="none" d="M79.27,38.54c-0.09,0.2-0.17,0.41-0.22,0.63c-0.34-0.92-0.58-1.89-0.72-2.88c0.16,1.22,0.46,2.41,0.91,3.54    c0.48-1.62,0.73-3.32,0.73-5.07c0-1.61-0.21-3.17-0.61-4.65c-0.48,1.37-0.74,2.83-0.74,4.36C78.62,35.87,78.85,37.24,79.27,38.54z    "/>
		<path fill="none" d="M91.34,20.36c0.07-0.01,0.14-0.01,0.21-0.02C91.48,20.35,91.41,20.36,91.34,20.36z"/>
		<path fill="none" d="M92.12,20.3c0.08,0,0.17-0.01,0.25-0.01C92.29,20.3,92.21,20.3,92.12,20.3z"/>
		<path fill="none" d="M78.25,35.49c0-0.04-0.01-0.08-0.01-0.11C78.24,35.42,78.24,35.46,78.25,35.49z"/>
		<path fill="none" d="M78.33,36.28c-0.01-0.08-0.02-0.17-0.03-0.26C78.31,36.11,78.31,36.19,78.33,36.28z"/>
		<g>
			<path fill="#FFFFFF" d="M116.73,37.81v-2.97c0-13.28-10.1-23.83-23.66-23.83c-0.25,0-0.49,0.01-0.74,0.02l0-0.01     c0,0-4.16-0.19-9.19,2c-5.66-5.54-13.48-8.97-22.15-8.97c-8.54,0-16.32,3.37-21.99,8.84c-3.01-1.31-6.33-2.05-9.84-2.05     c-5.48,0-10.58,1.79-14.62,4.81V7.62C14.54,5.08,12.42,3,9.83,3C7.13,3,5.02,5.08,5.02,7.62v26.77v0.09     c0,13,10.87,23.64,24.14,23.64c3.33,0,6.51-0.66,9.39-1.86c-2.3-2.33-4.24-5.01-5.7-7.95c-1.18,0.3-2.41,0.48-3.68,0.48     c-8.08,0-14.62-6.41-14.62-14.32v-0.09c0-2.21,0.52-4.3,1.45-6.17c0.02,0.01,0.04,0.02,0.06,0.03c2.42-4.64,7.35-7.81,13.04-7.81     c0.03,0,0.06,0,0.08,0v-0.03c6.77,0.08,12.46,4.61,14.12,10.72c0.24,0.87,0.39,1.77,0.45,2.69c0,0.01,0,0.02,0,0.02     c0.01,0.17,0.02,0.35,0.02,0.52c0,0.04,0.01,0.07,0.01,0.11c0,0.02,0,0.03,0,0.05c0,0.09,0.01,0.18,0.01,0.28     c0,1.68-0.3,3.29-0.84,4.78c-0.02-0.07-0.04-0.14-0.07-0.22c-0.05,0.13-0.1,0.26-0.15,0.39c-0.46-1.6-0.72-3.28-0.72-5.02     c0-1.56,0.07-2.55,0.44-3.99c-1.8-4.12-4.99-7.27-9.82-9.07c-2.02,4.05-2.98,8.25-2.98,13.06c0,16.88,14.11,30.7,31.34,30.7     c8.79,0,16.71-3.56,22.4-9.26c2.96,1.18,6.23,1.83,9.69,1.83c5.48,0,10.1-1.32,14.24-4.71v5.91c0,2.54,2.11,4.6,4.69,4.6     c2.68,0,4.79-2.06,4.79-4.6V37.73C116.77,37.76,116.75,37.78,116.73,37.81z M60.99,53.33c-4.8,0-9.19-1.77-12.53-4.67     c3.04-3.96,4.84-8.87,4.84-14.18c0-4.36-1.56-9.03-3.68-12.4c0,0,0,0,0,0c-0.01-0.01-0.02-0.02-0.02-0.04     c-0.31-0.5-0.64-0.96-0.98-1.4c3.32-2.8,7.64-4.49,12.37-4.49c4.76,0,9.1,1.72,12.43,4.55c-0.26,0.35-0.51,0.7-0.76,1.06     c2.71,2.72,4.58,6.25,5.19,10.19c0,0,0,0,0,0c-0.61-3.94-2.47-7.47-5.18-10.19c-2.48,3.74-3.92,8.22-3.92,13.07     c0,4.69,1.35,8.95,3.69,12.51c0.03,0.04,0.05,0.08,0.08,0.12c0.05,0.07,0.1,0.15,0.15,0.22c0,0,0,0,0,0     c0.24,0.36,0.49,0.72,0.75,1.07C70.07,51.59,65.74,53.33,60.99,53.33z M93.07,48.78c-1.37,0-2.7-0.18-3.96-0.51     c0.09-0.17,0.18-0.34,0.26-0.52c1.9-3.96,2.96-8.37,2.96-13.01c0-4.78-1.11-9.31-3.09-13.34c-4.2,1.43-8.35,4.91-9.7,9.42     c0.39,1.49,0.42,2.31,0.42,3.91c0,1.75-0.26,3.46-0.73,5.07c-0.44-1.12-0.75-2.31-0.91-3.54c0,0,0,0,0,0     c-0.01-0.08-0.02-0.17-0.03-0.26c-0.02-0.18-0.04-0.35-0.05-0.53c0-0.04-0.01-0.08-0.01-0.11c-0.01-0.2-0.02-0.4-0.03-0.61     c0-0.06,0-0.11,0-0.17c0-0.05,0-0.1,0-0.15c0-0.07,0-0.14,0.01-0.21c0-0.11,0-0.22,0-0.33c0-0.03,0.01-0.06,0.01-0.08     c0-0.03,0-0.06,0-0.09c0-0.02,0-0.04,0-0.06c0.22-3.85,2.04-7.29,4.84-9.73c2.24-1.95,5.11-3.25,8.27-3.59     c0.07-0.01,0.14-0.01,0.21-0.02c0.19-0.02,0.38-0.03,0.57-0.05c0.08,0,0.17-0.01,0.25-0.01c0.14-0.01,0.29-0.01,0.43-0.02v0.01     c1.22-0.01,2.55,0.11,3.97,0.45c6.18,1.68,10.52,7.46,10.52,14.11C107.3,42.75,101.15,48.78,93.07,48.78z"/>
			<path fill="#FFFFFF" d="M89.24,21.41C89.28,21.48,89.2,21.33,89.24,21.41L89.24,21.41z"/>
		</g>
	</g>
</g>
<g>
	<g>
		<path fill="#54575C" d="M223.89,84.52c0-1.53,1.26-2.76,2.81-2.76c1.01,0,1.94,0.53,2.45,1.38c0.16,0.26,0.06,0.59-0.2,0.75    c-0.27,0.14-0.61,0.06-0.76-0.2c-0.3-0.52-0.87-0.84-1.48-0.84c-0.93,0-1.71,0.75-1.71,1.67c0,0.91,0.77,1.67,1.71,1.67    c0.58,0,1.12-0.29,1.44-0.77c0.17-0.25,0.52-0.32,0.77-0.17c0.26,0.17,0.33,0.5,0.16,0.76c-0.52,0.79-1.4,1.26-2.37,1.26    C225.15,87.28,223.89,86.04,223.89,84.52z"/>
		<path fill="#54575C" d="M234.22,84.51c0-1.53,1.27-2.76,2.82-2.76c1.56,0,2.82,1.23,2.82,2.76c0,1.52-1.26,2.76-2.82,2.76    C235.49,87.27,234.22,86.03,234.22,84.51z M235.33,84.51c0,0.91,0.76,1.67,1.71,1.67s1.71-0.76,1.71-1.67    c0-0.92-0.76-1.67-1.71-1.67S235.33,83.59,235.33,84.51z"/>
		<path fill="#54575C" d="M252.87,84.02c0.01,0.02,0.01,0.03,0.01,0.05v2.67c0,0.31-0.26,0.55-0.56,0.55c-0.3,0-0.55-0.24-0.55-0.55    v-2.67c0-0.02,0-0.03,0-0.05c0-0.01,0-0.02,0-0.05c0-0.62-0.52-1.11-1.15-1.11c-0.63,0-1.15,0.5-1.15,1.11v2.77    c0,0.31-0.25,0.55-0.55,0.55s-0.56-0.24-0.56-0.55v-2.77c0-0.62-0.5-1.11-1.13-1.11c-0.63,0-1.14,0.5-1.14,1.11v2.77    c0,0.31-0.25,0.55-0.55,0.55c-0.31,0-0.56-0.24-0.56-0.55v-2.77c0-1.21,1.01-2.2,2.25-2.2c0.67,0,1.28,0.29,1.7,0.76    c0.42-0.47,1.02-0.76,1.7-0.76c1.25,0,2.26,0.99,2.26,2.2C252.88,83.99,252.88,84.01,252.87,84.02z"/>
		<path fill="#54575C" d="M262.6,82.3v2.76v0.01c-0.01,1.22-1.02,2.21-2.28,2.21c-1.25,0-2.26-0.99-2.27-2.21v-0.01V82.3    c0-0.3,0.25-0.54,0.55-0.54c0.31,0,0.56,0.24,0.56,0.54v2.75c0,0.63,0.52,1.14,1.16,1.14c0.65,0,1.17-0.52,1.17-1.14V82.3    c0-0.3,0.25-0.54,0.56-0.54C262.36,81.76,262.6,82,262.6,82.3z"/>
		<path fill="#54575C" d="M273.36,84.51v2.21c0,0.31-0.25,0.55-0.56,0.55c-0.3,0-0.55-0.24-0.55-0.55v-2.21    c0-0.92-0.76-1.67-1.71-1.67c-0.94,0-1.71,0.75-1.71,1.67v2.21c0,0.31-0.25,0.55-0.56,0.55c-0.3,0-0.55-0.24-0.55-0.55v-2.21    c0-1.53,1.27-2.76,2.82-2.76C272.09,81.75,273.36,82.98,273.36,84.51z"/>
		<path fill="#54575C" d="M278.66,80.51c-0.1-0.1-0.17-0.24-0.17-0.38c0-0.14,0.07-0.29,0.17-0.38c0.1-0.1,0.25-0.17,0.39-0.17    c0.15,0,0.29,0.07,0.39,0.17c0.1,0.1,0.16,0.24,0.16,0.38c0,0.14-0.06,0.29-0.16,0.38c-0.1,0.1-0.25,0.16-0.39,0.16    C278.9,80.66,278.76,80.61,278.66,80.51z M278.49,86.73V82.3c0-0.3,0.25-0.54,0.56-0.54c0.3,0,0.55,0.24,0.55,0.54v4.43    c0,0.31-0.25,0.55-0.55,0.55C278.74,87.28,278.49,87.04,278.49,86.73z"/>
		<path fill="#54575C" d="M284.73,84.52c0-1.53,1.26-2.76,2.81-2.76c1.01,0,1.94,0.53,2.45,1.38c0.16,0.26,0.06,0.59-0.2,0.75    c-0.27,0.14-0.61,0.06-0.76-0.2c-0.3-0.52-0.87-0.84-1.48-0.84c-0.93,0-1.71,0.75-1.71,1.67c0,0.91,0.77,1.67,1.71,1.67    c0.58,0,1.12-0.29,1.44-0.77c0.17-0.25,0.52-0.32,0.77-0.17c0.26,0.17,0.33,0.5,0.16,0.76c-0.52,0.79-1.4,1.26-2.37,1.26    C285.99,87.28,284.73,86.04,284.73,84.52z"/>
		<path fill="#54575C" d="M300.66,84.56v2.15c0,0.32-0.24,0.55-0.56,0.55c-0.22,0-0.54-0.23-0.54-0.55    c-0.48,0.4-1.02,0.55-1.66,0.55c-1.58,0-2.84-1.15-2.84-2.7s1.26-2.78,2.84-2.78S300.66,83.01,300.66,84.56z M299.56,84.56    c0-0.92-0.72-1.7-1.66-1.7c-0.94,0-1.74,0.78-1.74,1.7s0.8,1.63,1.74,1.63C298.85,86.18,299.56,85.48,299.56,84.56z"/>
		<path fill="#54575C" d="M310.9,86.01c-0.47,0.75-1.29,1.22-2.18,1.26l-0.01,0.11c0.45,0.01,0.82,0.38,0.82,0.86    s-0.38,0.82-0.86,0.82c-0.17,0-0.33-0.03-0.49-0.15c-0.2-0.13-0.27-0.22-0.27-0.34c0-0.15,0.12-0.29,0.29-0.29    c0.08,0,0.15,0.03,0.2,0.08c0.16,0.14,0.21,0.17,0.27,0.17c0.17,0,0.3-0.12,0.3-0.29c0-0.17-0.13-0.3-0.3-0.3    c-0.05,0-0.1,0.01-0.15,0.05c-0.06,0.03-0.11,0.05-0.18,0.05c-0.17,0-0.3-0.13-0.3-0.3l0.11-0.5c-1.37-0.19-2.42-1.34-2.42-2.74    c0-1.53,1.26-2.76,2.8-2.76c1.01,0,1.94,0.53,2.45,1.37c0.16,0.26,0.06,0.59-0.2,0.75c-0.27,0.14-0.61,0.06-0.76-0.2    c-0.3-0.52-0.86-0.84-1.48-0.84c-0.93,0-1.71,0.75-1.71,1.67c0,0.91,0.77,1.67,1.71,1.67c0.58,0,1.12-0.29,1.44-0.77    c0.17-0.25,0.52-0.32,0.78-0.17C311,85.41,311.07,85.75,310.9,86.01z"/>
		<path fill="#54575C" d="M321.8,84.56v2.15c0,0.32-0.24,0.55-0.56,0.55c-0.22,0-0.54-0.23-0.54-0.55c-0.48,0.4-1.02,0.55-1.66,0.55    c-1.58,0-2.84-1.15-2.84-2.7s1.26-2.78,2.84-2.78C320.62,81.77,321.8,83.01,321.8,84.56z M320.79,80.08c0,0.3-0.25,0.54-0.55,0.54    c-0.11,0-0.21-0.03-0.29-0.08c-0.03-0.02-0.07-0.04-0.09-0.07c-0.01-0.01-0.02-0.02-0.03-0.03c0,0,0-0.01-0.01-0.01    c-0.04-0.04-0.09-0.09-0.12-0.13c-0.12-0.12-0.14-0.12-0.17-0.12c-0.03,0-0.05,0-0.16,0.12c-0.17,0.18-0.45,0.47-0.98,0.47    c-0.52,0-0.8-0.3-0.97-0.47c-0.02-0.02-0.03-0.03-0.06-0.05c-0.01-0.01-0.01-0.01-0.02-0.02c-0.09-0.1-0.15-0.22-0.15-0.36    c0-0.3,0.25-0.54,0.55-0.54c0.15,0,0.28,0.05,0.38,0.15c0.01,0,0.01,0,0.01,0.01c0.03,0.03,0.07,0.05,0.09,0.09    c0.12,0.12,0.12,0.12,0.16,0.12s0.04,0,0.17-0.12c0.17-0.18,0.45-0.47,0.97-0.47c0.53,0,0.81,0.3,0.98,0.47l0.14,0.13    C320.72,79.8,320.79,79.94,320.79,80.08z M320.7,84.56c0-0.92-0.72-1.7-1.66-1.7c-0.94,0-1.74,0.78-1.74,1.7s0.8,1.63,1.74,1.63    C319.98,86.18,320.7,85.48,320.7,84.56z"/>
		<path fill="#54575C" d="M326.87,84.51c0-1.53,1.27-2.76,2.82-2.76c1.56,0,2.82,1.23,2.82,2.76c0,1.52-1.26,2.76-2.82,2.76    C328.13,87.27,326.87,86.03,326.87,84.51z M327.98,84.51c0,0.91,0.76,1.67,1.71,1.67c0.94,0,1.71-0.76,1.71-1.67    c0-0.92-0.76-1.67-1.71-1.67C328.74,82.84,327.98,83.59,327.98,84.51z"/>
	</g>
	<g>
		<path fill="#F58220" d="M295.18,41.2c0,6.06,3.96,11.03,9.43,13.1c1.92-4.01,3-8.49,3-13.2c0-4.85-1.12-9.44-3.13-13.53    C299.08,29.86,295.18,35.18,295.18,41.2"/>
		<path fill="#98BA3C" d="M332.35,44.21V41.2c0-13.47-10.24-24.17-23.99-24.17c-4.12,0-7.98,0.97-11.37,2.67    c2.24,2.32,4.12,4.97,5.55,7.88c1.8-0.76,3.77-1.19,5.82-1.19c8.19,0,14.44,6.78,14.44,14.81c0,8.03-6.24,14.14-14.44,14.14    c-2,0-3.92-0.37-5.69-1.04c-1.4,2.93-3.26,5.61-5.49,7.96c3.35,1.56,7.14,2.44,11.18,2.44c5.56,0,10.24-1.34,14.44-4.78v5.99    c0,2.57,2.14,4.66,4.76,4.66c2.72,0,4.86-2.09,4.86-4.66V44.13C332.4,44.16,332.37,44.18,332.35,44.21"/>
		<path fill="#F58220" d="M295.18,41.2c0-6.02,3.9-11.34,9.3-13.62c-1.43-2.91-3.31-5.56-5.55-7.88c-3.8,1.91-7.01,4.76-9.33,8.25    c3.38,3.4,5.47,8.03,5.47,13.16c0,5.07-2.1,9.71-5.49,13.13c2.35,3.45,5.64,6.21,9.53,8.03c2.22-2.35,4.08-5.03,5.49-7.96    C299.14,52.23,295.18,47.26,295.18,41.2"/>
		<path fill="#0082C6" d="M243.55,55.36c-8.19,0-14.82-6.5-14.82-14.52v-0.1c0-7.93,6.63-14.43,14.82-14.43    c1.44,0,2.84,0.21,4.15,0.59c1.57-2.94,3.61-5.6,6.01-7.89c-3.1-1.38-6.54-2.16-10.17-2.16c-5.56,0-10.73,1.82-14.82,4.87v-8.14    c0-2.58-2.15-4.68-4.78-4.68c-2.73,0-4.88,2.1-4.88,4.68v27.15v0.1c0,13.18,11.02,23.98,24.48,23.98c3.38,0,6.6-0.67,9.52-1.88    c-2.33-2.36-4.3-5.08-5.79-8.06C246.09,55.18,244.84,55.36,243.55,55.36"/>
		<path fill="#0082C6" d="M257.08,35.84c0.58,1.56,1.29,3.24,1.29,5c0,1.88-0.38,3.69-1.07,5.36c0.98,3.56,3.01,6.71,5.75,9.12    c3.12-4.03,4.97-9.05,4.97-14.48c0-5.21-2.18-10.85-4.92-14.26C265.38,29.4,258.18,32.3,257.08,35.84"/>
		<path fill="#0082C6" d="M247.33,26.9c4.52,1.29,8.14,4.63,9.75,8.93c1.09-3.53,3.22-6.62,6.03-8.94c-2.48-3.4-5.84-6.13-9.76-7.88    C250.94,21.3,248.91,23.96,247.33,26.9"/>
		<g>
			<g>
				<g>
					<defs>
						<path id="SVGID_1_" d="M304.37,27.58c-7.27,3.13-8.85,10.6-8.85,10.6c-0.55,2.62-0.65,4.42-0.66,5.23v0.32        c0,0.12,0.01,0.18,0.01,0.18c4.58-5.51,12.73-3.95,12.73-3.95C307.59,33.06,304.37,27.58,304.37,27.58z"/>
					</defs>
					<clipPath id="SVGID_2_">
						<use xlink:href="#SVGID_1_" overflow="visible"/>
					</clipPath>
					<defs>
						<filter id="Adobe_OpacityMaskFilter" filterUnits="userSpaceOnUse" x="288.35" y="21.42" width="25.63" height="28.64">
							<feColorMatrix type="matrix" values="1 0 0 0 0  0 1 0 0 0  0 0 1 0 0  0 0 0 1 0"/>
						</filter>
					</defs>
					<mask maskUnits="userSpaceOnUse" x="288.35" y="21.42" width="25.63" height="28.64" id="SVGID_3_">
						<g filter="url(#Adobe_OpacityMaskFilter)">
							<rect x="288.35" y="21.42" clip-path="url(#SVGID_2_)" width="25.63" height="28.64"/>
							<g enable-background="new    ">
								<g>
									<defs>
										<polygon id="SVGID_4_" points="288.35,31.66 297.95,50.06 313.98,39.82 304.37,21.42           "/>
									</defs>
									<clipPath id="SVGID_5_" clip-path="url(#SVGID_2_)">
										<use xlink:href="#SVGID_4_" overflow="visible"/>
									</clipPath>
									
										<linearGradient id="SVGID_6_" gradientUnits="userSpaceOnUse" x1="31.6189" y1="256.6944" x2="33.5678" y2="256.6944" gradientTransform="matrix(2.9248 5.7227 5.066 -3.304 -1094.1964 698.0884)">
										<stop offset="0" style="stop-color:#FFFFFF"/>
										<stop offset="0.0165" style="stop-color:#EDEBEB"/>
										<stop offset="0.163" style="stop-color:#9A9190"/>
										<stop offset="0.3025" style="stop-color:#645857"/>
										<stop offset="0.4313" style="stop-color:#413534"/>
										<stop offset="0.5469" style="stop-color:#2A1D1D"/>
										<stop offset="0.6454" style="stop-color:#1B0B0B"/>
										<stop offset="0.7151" style="stop-color:#140203"/>
										<stop offset="1" style="stop-color:#140203"/>
									</linearGradient>
									<polygon clip-path="url(#SVGID_5_)" fill="url(#SVGID_6_)" points="307.57,9.14 325.19,42.9 294.75,62.34 277.14,28.58                     "/>
								</g>
							</g>
						</g>
					</mask>
					<g clip-path="url(#SVGID_2_)" mask="url(#SVGID_3_)">
						<g>
							<defs>
								<rect id="SVGID_7_" x="288.35" y="21.42" width="25.63" height="28.64"/>
							</defs>
							<clipPath id="SVGID_8_">
								<use xlink:href="#SVGID_7_" overflow="visible"/>
							</clipPath>
							<g clip-path="url(#SVGID_8_)">
								<defs>
									<polygon id="SVGID_9_" points="288.35,31.66 297.95,50.06 313.98,39.82 304.38,21.42          "/>
								</defs>
								<clipPath id="SVGID_10_">
									<use xlink:href="#SVGID_9_" overflow="visible"/>
								</clipPath>
							</g>
						</g>
					</g>
				</g>
			</g>
		</g>
		<g>
			<g>
				<g>
					<defs>
						<path id="SVGID_11_" d="M285.63,42.15c-0.01,0-0.02,0-0.04,0c0.02,6.48,3.99,12.09,3.99,12.09c4.5-4.18,5.38-10.07,5.55-12.21        C291.98,42.5,288.67,42.42,285.63,42.15"/>
					</defs>
					<clipPath id="SVGID_12_">
						<use xlink:href="#SVGID_11_" overflow="visible"/>
					</clipPath>
					<defs>
						<filter id="Adobe_OpacityMaskFilter_1_" filterUnits="userSpaceOnUse" x="281.31" y="37.84" width="18.11" height="20.58">
							<feColorMatrix type="matrix" values="1 0 0 0 0  0 1 0 0 0  0 0 1 0 0  0 0 0 1 0"/>
						</filter>
					</defs>
					<mask maskUnits="userSpaceOnUse" x="281.31" y="37.84" width="18.11" height="20.58" id="SVGID_13_">
						<g filter="url(#Adobe_OpacityMaskFilter_1_)">
							<rect x="281.31" y="37.84" clip-path="url(#SVGID_12_)" width="18.11" height="20.58"/>
							<g enable-background="new    ">
								<g>
									<defs>
										<polygon id="SVGID_14_" points="299.42,51.91 293.32,37.84 281.31,44.34 287.41,58.41           "/>
									</defs>
									<clipPath id="SVGID_15_" clip-path="url(#SVGID_12_)">
										<use xlink:href="#SVGID_14_" overflow="visible"/>
									</clipPath>
									
										<linearGradient id="SVGID_16_" gradientUnits="userSpaceOnUse" x1="49.0669" y1="228.8969" x2="51.0117" y2="228.8969" gradientTransform="matrix(-2.7147 -6.3955 -5.7044 3.1535 1731.2711 -355.2431)">
										<stop offset="0" style="stop-color:#FFFFFF"/>
										<stop offset="0.043" style="stop-color:#FFFFFF"/>
										<stop offset="0.1452" style="stop-color:#E0E2E4"/>
										<stop offset="0.3091" style="stop-color:#A29D9E"/>
										<stop offset="0.5568" style="stop-color:#5F5554"/>
										<stop offset="0.7627" style="stop-color:#382C2C"/>
										<stop offset="0.9162" style="stop-color:#1F1111"/>
										<stop offset="1" style="stop-color:#140203"/>
									</linearGradient>
									<polygon clip-path="url(#SVGID_15_)" fill="url(#SVGID_16_)" points="284.75,66.36 274.09,41.75 295.98,29.89 306.65,54.5                     "/>
								</g>
							</g>
						</g>
					</mask>
					<g clip-path="url(#SVGID_12_)" mask="url(#SVGID_13_)">
						<g>
							<defs>
								<rect id="SVGID_17_" x="281.31" y="37.84" width="18.11" height="20.58"/>
							</defs>
							<clipPath id="SVGID_18_">
								<use xlink:href="#SVGID_17_" overflow="visible"/>
							</clipPath>
							<g clip-path="url(#SVGID_18_)">
								<defs>
									<polygon id="SVGID_19_" points="299.42,51.91 293.32,37.84 281.31,44.34 287.41,58.41          "/>
								</defs>
								<clipPath id="SVGID_20_">
									<use xlink:href="#SVGID_19_" overflow="visible"/>
								</clipPath>
							</g>
						</g>
					</g>
				</g>
			</g>
		</g>
		<path fill="#F58220" d="M289.59,54.23c-3.49,3.52-8.36,5.72-13.76,5.72c-10.64,0-19.25-8.56-19.25-18.85    c0-10.42,8.61-18.85,19.25-18.85c5.4,0,10.28,2.18,13.77,5.69c2.31-3.49,5.52-6.33,9.33-8.25c-5.79-5.99-13.98-9.73-23.1-9.73    c-17.47,0-31.78,13.89-31.78,31.13c0,17.12,14.31,31.13,31.78,31.13c9.22,0,17.49-3.85,23.29-9.97    C295.22,60.44,291.94,57.68,289.59,54.23"/>
		<path fill="#98BA3C" d="M287.65,54.23c3.39-3.41,5.49-8.06,5.49-13.13c0-5.12-2.09-9.76-5.47-13.16    c-2.52,3.79-3.98,8.34-3.98,13.25C283.69,46.11,285.14,50.55,287.65,54.23"/>
		<path fill="#98BA3C" d="M293.13,41.18c0.04-0.08,0.07-0.16,0.12-0.24c0.11-5.91,3.96-11.11,9.29-13.36    c-1.43-2.91-3.31-5.56-5.55-7.88c-3.8,1.91-7.01,4.76-9.33,8.25c3.38,3.4,5.48,8.04,5.48,13.16    C293.14,41.13,293.13,41.15,293.13,41.18"/>
		<path fill="#98BA3C" d="M293.14,23.75l5.16,6.51c0,0,5.13-5.42,13.84-3.36l-4.53-9.86c0,0-8.26-0.37-15.63,6L293.14,23.75z"/>
		<g>
			<path fill="#98BA3C" d="M294.35,46.31c-1.02-2.55-1.34-5.41-0.83-8.3c-3.25,1.44-6.51,2.85-9.79,4.21     c0.24,4.88,1.91,9.42,4.71,13.12C292.07,52.33,293.66,48.67,294.35,46.31z"/>
			<path opacity="0.39" fill="#98BA3C" d="M304.22,55.15c0.04-0.08,0.09-0.15,0.13-0.23c0,0-0.01,0-0.01,0     C304.3,55,304.26,55.07,304.22,55.15z"/>
			<path opacity="0.39" fill="#98BA3C" d="M299.69,61.66c0.17-0.16,0.35-0.33,0.52-0.49c0.46-0.44,0.89-0.88,1.31-1.33     c0.54-0.9,1.07-1.8,1.59-2.71C302.02,58.88,300.83,60.4,299.69,61.66z"/>
		</g>
		<path fill="#0082C6" d="M258.33,36.75c1.44-3.03,3.4-6.16,5.97-8.49c-4.33-6.74-12-11.22-20.75-11.22    c-9.37,0-17.52,5.15-21.63,12.7c1.18,0.66,2.37,1.31,3.54,1.98c1.61,0.91,3.2,1.85,4.79,2.8c2.46-4.7,7.46-7.92,13.23-7.92    c6.94,0,12.35,4.81,14.27,11.06C257.9,37.39,258.17,37.02,258.33,36.75z"/>
	</g>
</g>
<g>
	<g>
		<path d="M470.28,81.77c0-1.51,1.24-2.72,2.77-2.72c1,0,1.92,0.52,2.41,1.36c0.15,0.26,0.05,0.58-0.2,0.74    c-0.27,0.14-0.6,0.06-0.75-0.19c-0.3-0.51-0.85-0.82-1.46-0.82c-0.92,0-1.68,0.74-1.68,1.65c0,0.9,0.76,1.65,1.68,1.65    c0.58,0,1.11-0.28,1.42-0.76c0.17-0.25,0.51-0.31,0.76-0.16c0.26,0.16,0.32,0.5,0.16,0.75c-0.51,0.78-1.38,1.25-2.34,1.25    C471.52,84.49,470.28,83.27,470.28,81.77z"/>
		<path d="M480.46,81.76c0-1.51,1.25-2.72,2.78-2.72c1.54,0,2.78,1.21,2.78,2.72c0,1.5-1.24,2.72-2.78,2.72    C481.71,84.48,480.46,83.25,480.46,81.76z M481.55,81.76c0,0.9,0.75,1.65,1.68,1.65c0.93,0,1.68-0.75,1.68-1.65    c0-0.91-0.75-1.65-1.68-1.65C482.31,80.11,481.55,80.85,481.55,81.76z"/>
		<path d="M498.85,81.27c0.01,0.02,0.01,0.03,0.01,0.05v2.63c0,0.3-0.26,0.54-0.55,0.54c-0.3,0-0.54-0.24-0.54-0.54v-2.63    c0-0.02,0-0.03,0-0.05c0-0.01,0-0.02,0-0.04c0-0.61-0.51-1.1-1.13-1.1s-1.13,0.49-1.13,1.1v2.73c0,0.3-0.24,0.54-0.54,0.54    c-0.3,0-0.55-0.24-0.55-0.54v-2.73c0-0.61-0.5-1.1-1.12-1.1c-0.62,0-1.13,0.49-1.13,1.1v2.73c0,0.3-0.24,0.54-0.54,0.54    c-0.31,0-0.55-0.24-0.55-0.54v-2.73c0-1.19,1-2.17,2.22-2.17c0.66,0,1.26,0.28,1.67,0.75c0.41-0.47,1.01-0.75,1.67-0.75    c1.23,0,2.23,0.98,2.23,2.17C498.86,81.25,498.86,81.26,498.85,81.27z"/>
		<path d="M508.44,79.58v2.72v0.01c-0.01,1.2-1.01,2.18-2.25,2.18c-1.23,0-2.23-0.98-2.23-2.18V82.3v-2.72    c0-0.29,0.24-0.53,0.54-0.53c0.31,0,0.55,0.24,0.55,0.53v2.71c0,0.62,0.51,1.13,1.14,1.13c0.64,0,1.15-0.51,1.15-1.13v-2.71    c0-0.29,0.24-0.53,0.55-0.53C508.2,79.05,508.44,79.29,508.44,79.58z"/>
		<path d="M519.06,81.76v2.18c0,0.3-0.24,0.54-0.55,0.54c-0.3,0-0.54-0.24-0.54-0.54v-2.18c0-0.91-0.75-1.65-1.68-1.65    s-1.68,0.74-1.68,1.65v2.18c0,0.3-0.24,0.54-0.55,0.54c-0.3,0-0.54-0.24-0.54-0.54v-2.18c0-1.51,1.25-2.72,2.78-2.72    S519.06,80.25,519.06,81.76z"/>
		<path d="M524.28,77.81c-0.1-0.1-0.17-0.24-0.17-0.38c0-0.14,0.07-0.28,0.17-0.38c0.1-0.1,0.24-0.16,0.39-0.16    c0.14,0,0.29,0.06,0.39,0.16c0.1,0.1,0.15,0.24,0.15,0.38c0,0.14-0.06,0.28-0.15,0.38c-0.1,0.1-0.24,0.15-0.39,0.15    C524.52,77.96,524.38,77.91,524.28,77.81z M524.11,83.95v-4.37c0-0.29,0.24-0.53,0.55-0.53c0.3,0,0.54,0.24,0.54,0.53v4.37    c0,0.3-0.24,0.54-0.54,0.54C524.35,84.49,524.11,84.25,524.11,83.95z"/>
		<path d="M530.26,81.77c0-1.51,1.24-2.72,2.77-2.72c1,0,1.92,0.52,2.41,1.36c0.15,0.26,0.05,0.58-0.2,0.74    c-0.27,0.14-0.6,0.06-0.75-0.19c-0.3-0.51-0.85-0.82-1.46-0.82c-0.92,0-1.68,0.74-1.68,1.65c0,0.9,0.76,1.65,1.68,1.65    c0.58,0,1.11-0.28,1.42-0.76c0.17-0.25,0.51-0.31,0.76-0.16c0.26,0.16,0.32,0.5,0.16,0.75c-0.51,0.78-1.38,1.25-2.34,1.25    C531.5,84.49,530.26,83.27,530.26,81.77z"/>
		<path d="M545.98,81.8v2.12c0,0.31-0.23,0.54-0.55,0.54c-0.22,0-0.53-0.23-0.53-0.54c-0.48,0.39-1.01,0.54-1.64,0.54    c-1.56,0-2.8-1.14-2.8-2.67c0-1.53,1.24-2.74,2.8-2.74S545.98,80.27,545.98,81.8z M544.89,81.8c0-0.91-0.71-1.68-1.64-1.68    s-1.72,0.77-1.72,1.68c0,0.91,0.79,1.6,1.72,1.6S544.89,82.71,544.89,81.8z"/>
		<path d="M556.07,83.23c-0.46,0.74-1.27,1.2-2.15,1.25l-0.01,0.11c0.44,0.01,0.81,0.38,0.81,0.85c0,0.47-0.38,0.81-0.85,0.81    c-0.17,0-0.32-0.03-0.49-0.15c-0.2-0.13-0.27-0.22-0.27-0.34c0-0.15,0.12-0.28,0.29-0.28c0.08,0,0.14,0.03,0.2,0.08    c0.15,0.14,0.21,0.16,0.27,0.16c0.17,0,0.3-0.12,0.3-0.28s-0.13-0.29-0.3-0.29c-0.05,0-0.1,0.01-0.14,0.04    c-0.06,0.03-0.11,0.05-0.18,0.05c-0.17,0-0.3-0.13-0.3-0.29l0.11-0.49c-1.35-0.18-2.39-1.32-2.39-2.7c0-1.51,1.24-2.72,2.77-2.72    c1,0,1.92,0.52,2.41,1.35c0.15,0.26,0.05,0.58-0.2,0.74c-0.26,0.14-0.6,0.06-0.75-0.19c-0.3-0.51-0.85-0.82-1.46-0.82    c-0.92,0-1.68,0.74-1.68,1.65c0,0.9,0.76,1.65,1.68,1.65c0.58,0,1.11-0.28,1.42-0.76c0.17-0.25,0.51-0.31,0.77-0.16    C556.17,82.65,556.24,82.98,556.07,83.23z"/>
		<path d="M566.82,81.8v2.12c0,0.31-0.23,0.54-0.55,0.54c-0.22,0-0.53-0.23-0.53-0.54c-0.48,0.39-1.01,0.54-1.64,0.54    c-1.56,0-2.8-1.14-2.8-2.67c0-1.53,1.24-2.74,2.8-2.74C565.65,79.06,566.82,80.27,566.82,81.8z M565.82,77.39    c0,0.29-0.24,0.53-0.54,0.53c-0.11,0-0.21-0.03-0.29-0.08c-0.03-0.02-0.07-0.04-0.09-0.06c-0.01-0.01-0.02-0.02-0.03-0.03    c0,0,0-0.01-0.01-0.01c-0.04-0.04-0.09-0.09-0.12-0.13c-0.12-0.12-0.13-0.12-0.17-0.12c-0.03,0-0.05,0-0.15,0.12    c-0.17,0.17-0.44,0.47-0.96,0.47c-0.51,0-0.79-0.29-0.95-0.47c-0.02-0.02-0.03-0.03-0.05-0.05c-0.01-0.01-0.01-0.01-0.02-0.02    c-0.09-0.1-0.14-0.22-0.14-0.36c0-0.29,0.24-0.53,0.54-0.53c0.14,0,0.28,0.05,0.38,0.15c0.01,0,0.01,0,0.01,0.01    c0.03,0.03,0.07,0.05,0.09,0.09c0.12,0.12,0.12,0.12,0.15,0.12c0.03,0,0.04,0,0.17-0.12c0.17-0.17,0.44-0.47,0.95-0.47    c0.52,0,0.8,0.29,0.96,0.47l0.13,0.13C565.75,77.12,565.82,77.25,565.82,77.39z M565.73,81.8c0-0.91-0.71-1.68-1.64-1.68    c-0.93,0-1.72,0.77-1.72,1.68c0,0.91,0.79,1.6,1.72,1.6C565.02,83.41,565.73,82.71,565.73,81.8z"/>
		<path d="M571.81,81.76c0-1.51,1.25-2.72,2.78-2.72c1.54,0,2.78,1.21,2.78,2.72c0,1.5-1.24,2.72-2.78,2.72    C573.06,84.48,571.81,83.25,571.81,81.76z M572.91,81.76c0,0.9,0.75,1.65,1.68,1.65s1.68-0.75,1.68-1.65    c0-0.91-0.75-1.65-1.68-1.65S572.91,80.85,572.91,81.76z"/>
	</g>
	<g>
		<path d="M538.71,38.98c0-0.06,0-0.11,0-0.17C538.71,38.87,538.71,38.93,538.71,38.98z"/>
		<path d="M538.71,38.12c0,0.11,0,0.22,0,0.33c0-0.14,0-0.28,0.01-0.41C538.72,38.07,538.71,38.09,538.71,38.12z"/>
		<path d="M551.84,24.57c0.07-0.01,0.14-0.01,0.21-0.02C551.98,24.56,551.91,24.57,551.84,24.57z"/>
		<path d="M552.62,24.51c0.08,0,0.17-0.01,0.25-0.01C552.79,24.51,552.7,24.51,552.62,24.51z"/>
		<path d="M538.74,39.7c0-0.04-0.01-0.08-0.01-0.11C538.74,39.63,538.74,39.66,538.74,39.7z"/>
		<path d="M538.82,40.49c-0.01-0.08-0.02-0.17-0.03-0.26C538.8,40.32,538.81,40.4,538.82,40.49z"/>
		<g>
			<path d="M577.23,42.02v-2.97c0-13.28-10.1-23.83-23.66-23.83c-0.25,0-0.49,0.01-0.74,0.02l0-0.01c0,0-4.16-0.19-9.19,2     c-5.66-5.54-13.48-8.97-22.15-8.97c-8.54,0-16.32,3.37-21.99,8.84c-3.01-1.31-6.33-2.05-9.84-2.05c-5.48,0-10.58,1.79-14.62,4.81     v-8.02c0-2.54-2.12-4.62-4.71-4.62c-2.69,0-4.81,2.07-4.81,4.62V38.6v0.09c0,13,10.87,23.64,24.14,23.64     c3.33,0,6.51-0.66,9.39-1.86c-2.3-2.33-4.24-5.01-5.7-7.95c-1.18,0.3-2.41,0.48-3.68,0.48c-8.08,0-14.62-6.41-14.62-14.32V38.6     c0-2.21,0.52-4.3,1.45-6.17c0.02,0.01,0.04,0.02,0.06,0.03c2.42-4.64,7.35-7.81,13.04-7.81c0.03,0,0.06,0,0.08,0v-0.03     c6.77,0.08,12.46,4.61,14.12,10.72c0.24,0.87,0.39,1.77,0.45,2.69c0,0.01,0,0.02,0,0.02c0.01,0.17,0.02,0.35,0.02,0.52     c0,0.04,0.01,0.07,0.01,0.11c0,0.02,0,0.03,0,0.05c0,0.09,0.01,0.18,0.01,0.28c0,1.68-0.3,3.29-0.84,4.78     c-0.02-0.07-0.04-0.14-0.07-0.22c-0.05,0.13-0.1,0.26-0.15,0.39c-0.46-1.6-0.72-3.28-0.72-5.02c0-1.56,0.07-2.55,0.44-3.99     c-1.8-4.12-4.99-7.27-9.82-9.07c-2.02,4.05-2.98,8.25-2.98,13.06c0,16.88,14.11,30.7,31.34,30.7c8.79,0,16.71-3.56,22.4-9.26     c2.96,1.18,6.23,1.83,9.69,1.83c5.48,0,10.1-1.32,14.24-4.71v5.91c0,2.54,2.11,4.6,4.69,4.6c2.68,0,4.79-2.06,4.79-4.6V41.94     C577.27,41.97,577.25,41.99,577.23,42.02z M521.48,57.54c-4.8,0-9.19-1.77-12.53-4.67c3.04-3.96,4.84-8.87,4.84-14.18     c0-4.36-1.56-9.03-3.68-12.4c0,0,0,0,0,0c-0.01-0.01-0.02-0.02-0.02-0.04c-0.31-0.5-0.64-0.96-0.98-1.4     c3.32-2.8,7.64-4.49,12.37-4.49c4.76,0,9.1,1.72,12.43,4.55c-0.26,0.35-0.51,0.7-0.76,1.06c2.71,2.72,4.58,6.25,5.19,10.19     c0,0,0,0,0,0c-0.61-3.94-2.47-7.47-5.18-10.19c-2.48,3.74-3.92,8.22-3.92,13.07c0,4.69,1.35,8.95,3.69,12.51     c0.03,0.04,0.05,0.08,0.08,0.12c0.05,0.07,0.1,0.15,0.15,0.22c0,0,0,0,0,0c0.24,0.36,0.49,0.72,0.75,1.07     C530.57,55.8,526.24,57.54,521.48,57.54z M553.57,52.99c-1.37,0-2.7-0.18-3.96-0.51c0.09-0.17,0.18-0.34,0.26-0.52     c1.9-3.96,2.96-8.37,2.96-13.01c0-4.78-1.11-9.31-3.09-13.34c-4.2,1.43-8.35,4.91-9.7,9.42c0.39,1.49,0.42,2.31,0.42,3.91     c0,1.75-0.26,3.46-0.73,5.07c-0.44-1.12-0.75-2.31-0.91-3.54c0,0,0,0,0,0c-0.01-0.08-0.02-0.17-0.03-0.26     c-0.02-0.18-0.04-0.35-0.05-0.53c0-0.04-0.01-0.08-0.01-0.11c-0.01-0.2-0.02-0.4-0.03-0.61c0-0.06,0-0.11,0-0.17     c0-0.05,0-0.1,0-0.15c0-0.07,0-0.14,0.01-0.21c0-0.11,0-0.22,0-0.33c0-0.03,0.01-0.06,0.01-0.08c0-0.03,0-0.06,0-0.09     c0-0.02,0-0.04,0-0.06c0.22-3.85,2.04-7.29,4.84-9.73c2.24-1.95,5.11-3.25,8.27-3.59c0.07-0.01,0.14-0.01,0.21-0.02     c0.19-0.02,0.38-0.03,0.57-0.05c0.08,0,0.17-0.01,0.25-0.01c0.14-0.01,0.29-0.01,0.43-0.02v0.01c1.22-0.01,2.55,0.11,3.97,0.45     c6.18,1.68,10.52,7.46,10.52,14.11C567.8,46.96,561.65,52.99,553.57,52.99z"/>
			<path d="M549.74,25.62C549.77,25.69,549.7,25.54,549.74,25.62L549.74,25.62z"/>
		</g>
	</g>
</g>
</svg>